<svg width="1565" height="595" viewBox="0 0 1565 595" fill="none" xmlns="http://www.w3.org/2000/svg">
<path d="M484.594 0.5V1H485.094V485.094H0.5V0.5H484.594ZM364.195 483.201H483.201V364.642H364.195V483.201ZM243.297 483.201H362.303V364.642H243.297V483.201ZM123.291 483.201H241.404V364.642H123.291V483.201ZM2.39258 483.201H121.398V364.642H2.39258V483.201ZM364.195 362.749H483.201V243.297H364.195V362.749ZM243.297 362.749H362.303V243.297H243.297V362.749ZM123.291 362.749H241.404V243.297H123.291V362.749ZM2.39258 362.749H121.398V243.297H2.39258V362.749ZM364.195 241.404H483.201V122.398H364.195V241.404ZM243.297 241.404H362.303V122.398H243.297V241.404ZM123.291 241.404H241.404V122.398H123.291V241.404ZM2.39258 241.404H121.398V122.398H2.39258V241.404ZM364.195 120.506H483.201V2.39258H364.195V120.506ZM243.297 120.506H362.303V2.39258H243.297V120.506ZM123.291 120.506H241.404V2.39258H123.291V120.506ZM2.39258 120.506H121.398V2.39258H2.39258V120.506Z" fill="black" stroke="black"/>
<path d="M85.7586 9.71594V202.125H223.428V243.443H17.4637V9.71594H85.7586Z" fill="black" stroke="black" stroke-width="0.645652"/>
<path d="M242.122 211.713C242.122 206.763 243.199 202.249 245.354 198.172C247.509 194.095 250.741 190.601 255.051 187.689C259.361 184.719 264.719 182.447 271.125 180.875C277.59 179.244 285.103 178.429 293.664 178.429C300.012 178.429 306.68 178.895 313.669 179.827C320.716 180.758 327.967 182.185 335.422 184.107C335.131 180.846 334.141 177.846 332.452 175.109C330.763 172.314 328.404 169.926 325.375 167.946C322.405 165.907 318.794 164.335 314.543 163.228C310.35 162.122 305.574 161.568 300.216 161.568C297.304 161.568 294.101 161.743 290.606 162.093C287.112 162.442 283.501 162.966 279.774 163.665C276.046 164.364 272.348 165.238 268.679 166.286C265.068 167.334 261.69 168.586 258.545 170.042L250.683 148.814C254.585 147.416 258.749 146.135 263.175 144.97C267.66 143.805 272.232 142.815 276.891 142C281.55 141.126 286.209 140.456 290.868 139.991C295.528 139.525 300.041 139.292 304.409 139.292C323.686 139.292 338.013 144.213 347.39 154.056C356.767 163.898 361.455 178.982 361.455 199.308V244.211H335.597V234.514C332.918 236.086 329.976 237.571 326.773 238.969C323.628 240.367 320.192 241.59 316.465 242.638C312.737 243.687 308.719 244.502 304.409 245.084C300.158 245.725 295.644 246.045 290.868 246.045C282.831 246.045 275.755 245.172 269.64 243.425C263.583 241.677 258.516 239.26 254.439 236.174C250.362 233.087 247.276 229.476 245.179 225.341C243.141 221.148 242.122 216.605 242.122 211.713ZM269.378 210.839C269.378 212.528 269.815 214.159 270.688 215.732C271.562 217.246 272.96 218.614 274.881 219.837C276.803 221.002 279.249 221.963 282.22 222.72C285.248 223.419 288.888 223.769 293.14 223.769C297.682 223.769 302.08 223.361 306.331 222.546C310.583 221.73 314.543 220.653 318.212 219.313C321.881 217.974 325.201 216.43 328.171 214.683C331.141 212.936 333.616 211.131 335.597 209.267V204.724C331.636 203.618 327.705 202.686 323.803 201.929C319.959 201.172 316.261 200.589 312.708 200.181C309.214 199.716 305.894 199.395 302.749 199.221C299.663 199.046 296.954 198.958 294.625 198.958C289.791 198.958 285.772 199.279 282.569 199.919C279.366 200.56 276.774 201.434 274.794 202.54C272.814 203.589 271.416 204.841 270.601 206.297C269.785 207.753 269.378 209.267 269.378 210.839Z" fill="black"/>
<path d="M410.956 484.639H382.061V367.181H407.197L408.254 388.558C412.326 381.041 417.808 375.207 424.698 371.057C431.668 366.907 439.655 364.832 448.66 364.832C451.009 364.832 453.397 364.988 455.825 365.301C458.331 365.615 460.797 366.084 463.225 366.711L459.701 392.787C454.846 391.377 450.148 390.672 445.606 390.672C438.715 390.672 432.646 392.278 427.4 395.488C422.232 398.699 418.199 403.162 415.302 408.878C412.404 414.516 410.956 421.094 410.956 428.611V484.639Z" fill="black"/>
<rect x="117.863" y="243.12" width="248.576" height="241.474" fill="black"/>
<path d="M124.522 252.802H182.019L237.08 357.076H239.516L294.739 252.802H352.073L263.716 409.376V494.809H212.879V409.376L124.522 252.802Z" fill="white"/>
<path d="M553.426 160.517C566.751 160.517 577.586 163.479 585.931 169.401C594.276 175.189 598.449 185.014 598.449 198.878C598.449 203.992 597.237 208.636 594.814 212.808C592.526 216.846 589.498 220.346 585.729 223.307C591.921 226.537 596.968 230.912 600.871 236.43C604.909 241.949 606.928 248.948 606.928 257.428C606.928 270.08 602.487 279.973 593.603 287.106C584.854 294.24 573.144 297.807 558.473 297.807H502.144V160.517H553.426ZM549.59 182.322H528.189V216.443H547.571C554.839 216.443 560.492 215.097 564.53 212.405C568.703 209.578 570.789 205.204 570.789 199.281C570.789 192.821 568.904 188.379 565.136 185.956C561.367 183.534 556.185 182.322 549.59 182.322ZM558.271 237.642H528.189V276.204H556.454C563.453 276.204 569.039 274.589 573.212 271.358C577.519 268.128 579.672 263.552 579.672 257.629C579.672 251.169 577.721 246.256 573.817 242.891C569.914 239.391 564.732 237.642 558.271 237.642ZM679.887 300.23C662.928 300.23 649.535 295.586 639.71 286.299C630.019 277.011 625.173 264.561 625.173 248.948C625.173 233.335 629.547 220.817 638.296 211.395C647.18 201.973 659.226 197.262 674.436 197.262C689.78 197.262 701.019 202.377 708.152 212.607C715.421 222.701 719.055 234.681 719.055 248.544V256.62H653.035C654.246 263.081 657.207 268.263 661.918 272.166C666.629 275.935 672.821 277.819 680.493 277.819C684.934 277.819 688.905 277.281 692.404 276.204C696.039 274.992 700.211 273.31 704.922 271.156L712.594 290.135C708.018 293.634 702.432 296.192 695.837 297.807C689.376 299.422 684.059 300.23 679.887 300.23ZM694.222 239.055C692.876 232.46 690.453 227.614 686.953 224.518C683.454 221.288 679.079 219.673 673.83 219.673C668.446 219.673 663.937 221.355 660.303 224.72C656.669 227.951 654.313 232.729 653.237 239.055H694.222ZM760.831 210.386C765.273 205.944 770.792 202.444 777.387 199.887C784.117 197.33 790.106 196.051 795.356 196.051C808.681 196.051 818.103 199.954 823.621 207.761C829.274 215.568 832.101 225.124 832.101 236.43V297.807H805.854V237.642C805.854 231.45 804.374 226.739 801.413 223.509C798.451 220.144 794.144 218.462 788.491 218.462C784.722 218.462 780.752 219.471 776.579 221.49C772.541 223.374 768.84 225.595 765.475 228.153V297.807H739.229V199.887H752.957L760.831 210.386ZM916.913 295.788C914.759 297.538 911.664 298.951 907.626 300.028C903.722 301.239 900.223 301.845 897.127 301.845C885.013 301.845 875.457 298.816 868.458 292.759C861.593 286.568 858.161 277.819 858.161 266.513V220.279H845.038V200.089H858.161V176.871L884.206 172.227V200.089H901.973L910.048 220.279H884.206V261.869C884.206 266.984 885.417 271.224 887.84 274.589C890.263 277.819 893.829 279.434 898.54 279.434C900.29 279.434 902.04 279.232 903.79 278.829C905.539 278.425 907.357 277.752 909.241 276.81L916.913 295.788ZM976.688 300.23C961.21 300.23 949.096 295.586 940.347 286.299C931.733 276.877 927.426 264.292 927.426 248.544C927.426 232.931 931.935 220.481 940.953 211.193C950.105 201.906 962.556 197.262 978.304 197.262C994.59 197.262 1007.17 202.108 1016.06 211.799C1025.08 221.355 1029.59 233.94 1029.59 249.554C1029.59 265.167 1024.74 277.55 1015.05 286.702C1005.36 295.721 992.571 300.23 976.688 300.23ZM1002.53 249.554C1002.53 240.266 1000.44 232.998 996.272 227.749C992.234 222.365 986.447 219.673 978.909 219.673C971.237 219.673 965.248 222.028 960.941 226.739C956.633 231.45 954.48 238.651 954.48 248.342C954.48 258.033 956.297 265.369 959.931 270.349C963.7 275.329 969.42 277.819 977.092 277.819C984.63 277.819 990.754 275.598 995.465 271.156C1000.18 266.58 1002.53 259.379 1002.53 249.554ZM553.628 418.701H603.698V486.539C598.449 489.365 592.123 491.788 584.72 493.807C577.317 495.691 569.376 496.633 560.896 496.633C539.495 496.633 523.411 489.769 512.643 476.04C502.01 462.176 496.693 445.419 496.693 425.768C496.693 404.905 502.75 387.677 514.864 374.082C526.977 360.488 543.398 353.691 564.126 353.691C568.164 353.691 573.885 354.364 581.287 355.71C588.825 357.056 595.622 359.344 601.679 362.574L593.401 381.351C587.479 379.601 582.633 378.255 578.865 377.313C575.231 376.236 570.452 375.698 564.53 375.698C552.416 375.698 542.591 379.87 535.053 388.215C527.65 396.426 523.949 408.876 523.949 425.566C523.949 440.641 526.977 452.62 533.034 461.503C539.226 470.252 548.311 474.627 560.29 474.627C564.732 474.627 568.568 474.425 571.798 474.021C575.029 473.483 577.855 472.944 580.278 472.406V438.891H551.407L553.628 418.701ZM683.901 395.887L689.15 416.884C684.709 416.884 679.527 418.163 673.604 420.72C667.817 423.278 662.096 427.046 656.443 432.027V493.807H630.197V395.887H643.926L652.607 410.222C656.645 406.722 661.558 403.492 667.346 400.531C673.133 397.435 678.652 395.887 683.901 395.887ZM715.679 352.479C719.852 352.479 723.351 353.893 726.178 356.719C729.139 359.546 730.62 363.045 730.62 367.218C730.62 371.39 729.139 374.89 726.178 377.716C723.351 380.543 719.852 381.956 715.679 381.956C711.641 381.956 708.209 380.543 705.383 377.716C702.556 374.89 701.143 371.39 701.143 367.218C701.143 363.045 702.556 359.546 705.383 356.719C708.209 353.893 711.641 352.479 715.679 352.479ZM728.803 395.887V493.807H702.556V395.887H728.803ZM801.659 414.462C792.506 414.462 786.113 417.692 782.479 424.153C778.979 430.613 777.229 437.276 777.229 444.14C777.229 451.812 778.844 458.677 782.075 464.734C785.305 470.791 791.833 473.819 801.659 473.819C804.754 473.819 807.985 473.146 811.35 471.8C814.849 470.32 818.08 468.637 821.041 466.753V421.528C818.08 419.509 814.849 417.827 811.35 416.481C807.985 415.135 804.754 414.462 801.659 414.462ZM847.489 351.268V493.807H833.76L826.492 484.318C822.05 488.086 816.801 491.048 810.744 493.201C804.822 495.22 799.438 496.23 794.592 496.23C780.325 496.23 769.355 491.249 761.683 481.289C754.011 471.329 750.175 458.946 750.175 444.14C750.175 429.335 754.213 416.952 762.289 406.991C770.499 397.031 781.671 392.051 795.804 392.051C799.438 392.051 803.543 392.724 808.119 394.07C812.696 395.281 817.003 397.031 821.041 399.319V353.489L847.489 351.268ZM977.132 356.517C990.457 356.517 1001.29 359.479 1009.64 365.401C1017.98 371.189 1022.15 381.014 1022.15 394.878C1022.15 399.992 1020.94 404.636 1018.52 408.808C1016.23 412.846 1013.2 416.346 1009.43 419.307C1015.63 422.537 1020.67 426.912 1024.58 432.43C1028.62 437.949 1030.63 444.948 1030.63 453.428C1030.63 466.08 1026.19 475.973 1017.31 483.106C1008.56 490.24 996.85 493.807 982.179 493.807H925.85V356.517H977.132ZM973.296 378.322H951.895V412.443H971.277C978.545 412.443 984.198 411.097 988.236 408.405C992.408 405.578 994.495 401.204 994.495 395.281C994.495 388.821 992.61 384.379 988.842 381.956C985.073 379.534 979.891 378.322 973.296 378.322ZM981.977 433.642H951.895V472.204H980.16C987.159 472.204 992.745 470.589 996.917 467.358C1001.22 464.128 1003.38 459.552 1003.38 453.629C1003.38 447.169 1001.43 442.256 997.523 438.891C993.62 435.391 988.438 433.642 981.977 433.642ZM1122.57 484.116C1118.13 488.288 1112.68 491.586 1106.22 494.009C1099.76 496.566 1093.9 497.845 1088.65 497.845C1075.33 497.845 1065.84 493.941 1060.19 486.135C1054.67 478.193 1051.91 468.637 1051.91 457.465V395.887H1078.36V456.254C1078.36 462.446 1079.84 467.224 1082.8 470.589C1085.76 473.819 1090.07 475.434 1095.72 475.434C1099.22 475.434 1102.92 474.559 1106.82 472.81C1110.73 471.06 1114.29 469.041 1117.52 466.753V395.887H1143.77V493.807H1130.04L1122.57 484.116ZM1182.17 352.479C1186.34 352.479 1189.84 353.893 1192.67 356.719C1195.63 359.546 1197.11 363.045 1197.11 367.218C1197.11 371.39 1195.63 374.89 1192.67 377.716C1189.84 380.543 1186.34 381.956 1182.17 381.956C1178.13 381.956 1174.7 380.543 1171.87 377.716C1169.05 374.89 1167.63 371.39 1167.63 367.218C1167.63 363.045 1169.05 359.546 1171.87 356.719C1174.7 353.893 1178.13 352.479 1182.17 352.479ZM1195.29 395.887V493.807H1169.05V395.887H1195.29ZM1248.16 351.268V493.807H1222.12V353.489L1248.16 351.268ZM1321.78 414.462C1312.63 414.462 1306.23 417.692 1302.6 424.153C1299.1 430.613 1297.35 437.276 1297.35 444.14C1297.35 451.812 1298.96 458.677 1302.19 464.734C1305.42 470.791 1311.95 473.819 1321.78 473.819C1324.87 473.819 1328.1 473.146 1331.47 471.8C1334.97 470.32 1338.2 468.637 1341.16 466.753V421.528C1338.2 419.509 1334.97 417.827 1331.47 416.481C1328.1 415.135 1324.87 414.462 1321.78 414.462ZM1367.61 351.268V493.807H1353.88L1346.61 484.318C1342.17 488.086 1336.92 491.048 1330.86 493.201C1324.94 495.22 1319.56 496.23 1314.71 496.23C1300.44 496.23 1289.47 491.249 1281.8 481.289C1274.13 471.329 1270.29 458.946 1270.29 444.14C1270.29 429.335 1274.33 416.952 1282.41 406.991C1290.62 397.031 1301.79 392.051 1315.92 392.051C1319.56 392.051 1323.66 392.724 1328.24 394.07C1332.81 395.281 1337.12 397.031 1341.16 399.319V353.489L1367.61 351.268ZM1444.49 496.23C1427.53 496.23 1414.14 491.586 1404.31 482.299C1394.62 473.011 1389.78 460.561 1389.78 444.948C1389.78 429.335 1394.15 416.817 1402.9 407.395C1411.78 397.973 1423.83 393.262 1439.04 393.262C1454.38 393.262 1465.62 398.377 1472.76 408.607C1480.02 418.701 1483.66 430.681 1483.66 444.544V452.62H1417.64C1418.85 459.081 1421.81 464.263 1426.52 468.166C1431.23 471.935 1437.42 473.819 1445.1 473.819C1449.54 473.819 1453.51 473.281 1457.01 472.204C1460.64 470.992 1464.81 469.31 1469.52 467.156L1477.2 486.135C1472.62 489.634 1467.03 492.192 1460.44 493.807C1453.98 495.422 1448.66 496.23 1444.49 496.23ZM1458.82 435.055C1457.48 428.46 1455.06 423.614 1451.56 420.518C1448.06 417.288 1443.68 415.673 1438.43 415.673C1433.05 415.673 1428.54 417.355 1424.91 420.72C1421.27 423.951 1418.92 428.729 1417.84 435.055H1458.82ZM1557.54 395.887L1562.78 416.884C1558.34 416.884 1553.16 418.163 1547.24 420.72C1541.45 423.278 1535.73 427.046 1530.08 432.027V493.807H1503.83V395.887H1517.56L1526.24 410.222C1530.28 406.722 1535.19 403.492 1540.98 400.531C1546.77 397.435 1552.29 395.887 1557.54 395.887Z" fill="black"/>
</svg>
